<?xml version="1.0" standalone="no"?>
<!DOCTYPE svg PUBLIC "-//W3C//DTD SVG 20010904//EN"
 "http://www.w3.org/TR/2001/REC-SVG-20010904/DTD/svg10.dtd">
<svg version="1.0" xmlns="http://www.w3.org/2000/svg"
 width="787.000000pt" height="628.000000pt" viewBox="0 0 787.000000 628.000000"
 preserveAspectRatio="xMidYMid meet">
<metadata>
Created by potrace 1.16, written by Peter Selinger 2001-2019
</metadata>
<g transform="translate(0.000000,628.000000) scale(0.100000,-0.100000)"
fill="#FFFFFF" stroke="none">
<path d="M3690 5424 c-706 -63 -1191 -346 -1275 -743 -19 -89 -19 -121 -1
-241 48 -312 285 -852 549 -1249 267 -403 532 -663 775 -764 71 -29 86 -32
187 -31 96 0 119 3 179 27 152 60 355 223 523 420 329 384 648 972 780 1435
33 116 36 139 37 262 1 116 -2 145 -22 205 -65 193 -228 358 -477 480 -180 88
-354 140 -610 180 -97 15 -540 28 -645 19z m1037 -966 c-4 -533 -7 -646 -21
-718 -44 -226 -119 -364 -245 -448 -229 -153 -491 29 -405 281 21 62 89 135
177 193 178 115 209 140 233 180 24 40 24 44 24 297 0 142 -3 257 -7 256 -5 0
-188 -39 -408 -87 l-400 -87 -6 -290 c-6 -287 -14 -367 -47 -449 -54 -139
-163 -206 -303 -186 -137 20 -271 119 -332 247 -28 60 -32 78 -32 153 0 108
25 165 93 213 44 30 52 32 132 32 96 -1 146 -19 220 -82 l42 -36 -3 382 c-1
224 1 385 7 390 5 5 90 34 189 64 99 30 335 103 525 162 190 59 381 118 424
131 44 13 82 26 84 29 3 3 18 5 35 5 l29 0 -5 -632z m-967 -1418 c120 -25 221
-25 334 0 122 27 146 26 146 -3 0 -59 -130 -196 -226 -239 -93 -41 -179 -18
-282 76 -72 66 -112 122 -112 158 0 35 9 35 140 8z"/>
<path d="M3470 2078 c0 -18 0 -170 0 -338 1 -341 3 -354 70 -377 40 -13 192
-7 226 9 43 20 46 48 45 323 -1 143 -4 295 -7 338 l-7 77 -59 0 -60 0 4 -312
3 -313 -40 0 -40 0 -6 65 c-4 36 -7 176 -8 313 l-1 247 -60 0 -60 0 0 -32z"/>
<path d="M4017 2084 c-32 -32 -40 -79 -35 -218 3 -100 4 -107 31 -133 24 -25
37 -29 105 -33 l77 -5 3 -102 3 -103 -52 0 -52 0 7 40 c4 29 3 40 -6 40 -7 0
-37 3 -65 6 l-53 6 0 -77 c0 -42 5 -85 10 -96 20 -36 63 -49 170 -49 99 0 102
1 131 29 l29 29 0 172 0 172 -29 29 c-22 22 -39 29 -68 29 -21 0 -55 3 -75 6
l-38 7 0 78 0 79 45 0 45 0 0 -39 c0 -35 3 -39 31 -45 17 -3 44 -6 60 -6 28 0
29 2 31 48 3 88 -1 106 -32 135 -29 26 -34 27 -139 27 -103 0 -109 -1 -134
-26z"/>
<path d="M4497 1934 c-4 -99 -10 -270 -14 -381 l-6 -203 65 0 66 0 7 370 c4
204 5 374 1 377 -3 4 -30 8 -59 11 l-54 4 -6 -178z"/>
<path d="M3043 2090 c-12 -5 -26 -17 -31 -27 -10 -17 -12 -17 -32 5 -19 20
-30 22 -128 22 -59 0 -112 -4 -118 -8 -9 -5 -8 -100 2 -372 7 -201 13 -368 14
-372 0 -12 118 -9 122 2 2 5 -2 115 -9 242 -6 128 -12 268 -12 311 l-1 77 44
0 c41 0 45 -2 50 -27 2 -16 8 -145 11 -288 3 -143 8 -272 11 -287 5 -27 8 -28
65 -28 l59 0 -1 73 c0 39 -6 180 -13 312 -7 132 -11 243 -9 248 2 4 24 7 47 7
l44 0 6 -62 c3 -35 8 -177 12 -315 l7 -253 63 0 c60 0 64 2 64 23 -1 122 -33
663 -40 677 -21 38 -51 50 -130 49 -41 0 -85 -4 -97 -9z"/>
<path d="M4831 2063 l-33 -28 -8 -135 c-5 -74 -12 -216 -15 -315 l-8 -181 25
-28 c27 -31 78 -44 181 -45 69 -1 110 18 125 56 13 35 23 141 14 147 -4 2 -32
6 -62 7 l-55 4 -5 -40 c-5 -39 -6 -40 -45 -40 l-40 0 -3 70 c-1 39 1 151 5
250 l8 180 45 0 45 0 3 -42 c3 -37 6 -43 25 -43 12 0 39 -3 60 -6 l37 -7 0 71
c0 126 -20 144 -166 150 -100 4 -102 4 -133 -25z"/>
</g>
</svg>
